<svg width="48" height="48" viewBox="0 0 48 48" fill="none" xmlns="http://www.w3.org/2000/svg">
<path d="M31.8828 31.4888C31.9828 31.4888 32.0825 31.2227 32.0825 30.8525V20.5393C32.0825 18.2645 33.8417 15.8473 36.3079 15.1144C36.1541 14.6139 34.5887 9.4832 34.1453 8.05877C33.6796 6.56109 32.3488 3 30.7183 3C30.7061 3 30.6938 3.00099 30.681 3.00299C30.6805 3.00299 30.6818 3.00299 30.681 3.00299C30.5589 3.02397 30.4379 3.14344 30.3208 3.34579C29.4694 4.90171 29.0881 11.3876 29.0881 16.2456V22.2805C29.8207 24.8685 31.52 30.8579 31.6501 31.2221C31.6501 31.2221 31.7831 31.4888 31.8828 31.4888Z" fill="url(#paint0_linear)"/>
<path d="M42.6987 14.8814H37.8828C34.6469 14.8814 32.085 17.7769 32.085 20.5059V30.8191C32.085 31.1892 31.9853 31.4556 31.8856 31.4556C31.7856 31.4556 31.6526 31.1892 31.6526 31.1892C31.6526 31.1892 31.8523 31.7551 32.1183 31.7551H37.396C39.039 31.7551 43.9965 30.1242 43.9965 25.0322V16.3528C43.9965 15.2475 43.3641 14.8814 42.6987 14.8814Z" fill="url(#paint1_linear)"/>
<path d="M6.23329 45.6667H20.5734C26.8285 45.6667 29.0911 40.2419 29.0911 35.5157V16.246C29.0911 10.688 29.5901 3 30.7213 3H22.1209C20.0743 3 18.3109 5.19656 16.3146 9.62299C14.3183 14.0494 4.69979 41.2832 4.27026 42.5715C3.57156 44.6683 4.20372 45.6667 6.23329 45.6667Z" fill="url(#paint2_linear)"/>
<defs>
<linearGradient id="paint0_linear" x1="32.698" y1="31.4888" x2="32.698" y2="5.04147" gradientUnits="userSpaceOnUse">
<stop offset="0.02" stop-color="#201BA6"/>
<stop offset="0.64" stop-color="#2D29C7"/>
<stop offset="1" stop-color="#201BA6"/>
</linearGradient>
<linearGradient id="paint1_linear" x1="37.8244" y1="31.6132" x2="37.8244" y2="15.0681" gradientUnits="userSpaceOnUse">
<stop stop-color="#3530C3"/>
<stop offset="0.5" stop-color="#6D71D1"/>
<stop offset="0.966555" stop-color="#C0BFF5"/>
<stop offset="1" stop-color="#E3E4FF"/>
</linearGradient>
<linearGradient id="paint2_linear" x1="15.0466" y1="45.6248" x2="15.0466" y2="2.54716" gradientUnits="userSpaceOnUse">
<stop stop-color="#302EC9"/>
<stop offset="0.445601" stop-color="#302EC9"/>
<stop offset="0.949145" stop-color="#CACAFB"/>
<stop offset="1" stop-color="#7F7EAF"/>
</linearGradient>
</defs>
</svg>
